HIERARCHY
ROOT pelvis
{
  OFFSET 0 100 0
  CHANNELS 6 Xposition Yposition Zposition Zrotation Xrotation Yrotation
  JOINT pelvis_right_femur
  {
    OFFSET -10.78128 -3.44521 -0.5502486
    CHANNELS 3 Zrotation Xrotation Yrotation
    JOINT right_femur_tibia
    {
      OFFSET -0.8047443 -44.0398 -0.1307829
      CHANNELS 3 Zrotation Xrotation Yrotation
      JOINT right_tibia_foot
      {
        OFFSET 3.006224 -47.83518 -5
        CHANNELS 3 Zrotation Xrotation Yrotation
        End Site
        {
          OFFSET 0 -5 15
        }
      }
    }
  }
  JOINT pelvis_left_femur
  {
    OFFSET 10.78128 -3.44521 -0.5502486
    CHANNELS 3 Zrotation Xrotation Yrotation
    JOINT left_femur_tibia
    {
      OFFSET 0.8047443 -44.0398 -0.1307829
      CHANNELS 3 Zrotation Xrotation Yrotation
      JOINT left_tibia_foot
      {
        OFFSET -4.370144 -48.10324 -4.275266
        CHANNELS 3 Zrotation Xrotation Yrotation
        End Site
        {
          OFFSET 0 -5 15
        }
      }
    }
  }
  JOINT pelvis_spine1
  {
    OFFSET 0 6.468898 -3.129235
    CHANNELS 3 Zrotation Xrotation Yrotation
    JOINT spine1
    {
      OFFSET 0 23.15396 4.99043
      CHANNELS 3 Zrotation Xrotation Yrotation
      JOINT spine2
      {
        OFFSET 0 20.79997 -5.064912
        CHANNELS 3 Zrotation Xrotation Yrotation
        JOINT neck
        {
          OFFSET 0 14.38658 9.616178
          CHANNELS 3 Zrotation Xrotation Yrotation
          End Site
          {
            OFFSET 0 20 0
          }
        }
      }
      JOINT right_manubrium
      {
        OFFSET -5.722621 16.35077 3.967754
        CHANNELS 3 Zrotation Xrotation Yrotation
        JOINT right_clavicle
        {
          OFFSET -13.16364 1.694482 -4.693211
          CHANNELS 3 Zrotation Xrotation Yrotation
          JOINT right_humerus
          {
            OFFSET -28.5034 -0.3100689 -2.792744
            CHANNELS 3 Zrotation Xrotation Yrotation
            JOINT right_radius
            {
              OFFSET -25.15693 0.02248979 -1.271978
              CHANNELS 3 Zrotation Xrotation Yrotation
              End Site
              {
                OFFSET -15 0 0
              }
            }
          }
        }
      }
      JOINT left_manubrium
      {
        OFFSET 5.722621 16.35077 3.967754
        CHANNELS 3 Zrotation Xrotation Yrotation
        JOINT left_clavicle
        {
          OFFSET 13.16364 1.694482 -4.693211
          CHANNELS 3 Zrotation Xrotation Yrotation
          JOINT left_humerus
          {
            OFFSET 29.39168 -1.063119 -2.237045
            CHANNELS 3 Zrotation Xrotation Yrotation
            JOINT left_radius
            {
              OFFSET 24.59957 -0.9528479 0.9047498
              CHANNELS 3 Zrotation Xrotation Yrotation
              End Site
              {
                OFFSET 15 -0 -0
              }
            }
          }
        }
      }
    }
  }
}
MOTION
Frames: 19
Frame Time: 0.0416666666667
0 103.5113 0 0.8359648 -1.449051 0.1922459 2.957945 -15.23435 7.615502 -0 38.83925 -0 -5.989043 -14.05838 -2.902649 -7.083628 5.874165 -22.01486 -0 4.879027 -0 6.680837 -17.83356 25.33586 -1.239916 -1.36945 4.679422 3.078722 7.245902 -8.406558 1.043511 21.09654 7.275804 2.250659 -27.43204 9.717983 4.902428 -19.63416 11.31574 88.32067 36.5043 -22.91405 -0 0 15.49426 -6.607202 10.29963 5.588499 3.413741 -18.77476 -1.144557 -97.90422 38.72534 28.75854 0 0 -25.74111 -7.959373 11.8302 27.47454
0.430073 103.4821 1.248573 0.8707765 -1.41072 0.3971414 3.094528 -16.82507 8.145431 -0 41.34534 -0 -5.943637 -13.69832 -3.179669 -7.34558 7.753426 -22.80721 -0 6.305905 -0 6.93496 -18.10435 25.5643 -1.169677 -1.485216 4.600772 3.20108 7.272734 -8.599371 0.9997544 21.03335 7.295415 2.249278 -27.81629 9.763378 4.850569 -19.74834 11.34837 88.8409 36.55158 -23.63395 -0 0 15.30573 -6.012292 10.09854 5.273642 3.432325 -19.03078 -1.162561 -98.08782 38.94568 28.98818 0 0 -26.33707 -7.92696 12.11219 27.50764
0.7707155 103.3358 2.82102 0.749755 -1.278342 0.6436827 3.298151 -19.97659 7.3753 -0 38.73763 -0 -6.054876 -12.29202 -3.454731 -7.016201 10.46025 -22.06548 -0 6.376362 -0 6.394306 -18.97422 24.44749 -1.355052 -1.306806 4.623011 2.969544 7.411635 -8.279195 1.015964 21.1628 7.34053 2.450992 -26.9366 9.563523 5.020763 -19.33592 11.3518 87.95686 36.5707 -22.35179 -0 0 15.164 -7.461884 10.50333 5.903072 3.649081 -18.9218 -1.280111 -96.76303 37.41573 27.35411 0 0 -25.09844 -6.652639 12.18821 25.46597
1.042733 103.022 4.596745 0.6184149 -1.042574 0.89023 3.524484 -22.28662 6.751865 -0 35.52703 -0 -6.308705 -11.71693 -3.552542 -6.703512 12.16132 -21.51293 -0 5.962177 -0 6.098433 -19.60648 23.6664 -1.396049 -1.288472 4.547093 2.954576 7.469489 -8.284964 1.004482 21.18823 7.374451 2.52664 -26.77266 9.519962 5.054349 -19.15335 11.35598 87.98426 36.58037 -22.36903 -0 0 14.86825 -7.709786 10.56273 5.949258 3.764248 -19.057 -1.350397 -96.19106 36.95749 26.59368 0 0 -25.09155 -6.106925 12.34237 24.64344
1.237462 102.4765 6.725216 0.4582925 -0.8455347 1.149065 3.690037 -24.92061 5.809954 -0 31.39058 -0 -6.542626 -10.7325 -3.678258 -6.303903 14.10657 -20.55685 -0 5.485074 -0 5.513189 -20.33893 22.49801 -1.467107 -1.236066 4.426318 2.920412 7.536234 -8.280362 1.001082 21.24013 7.419912 2.626259 -26.46487 9.460296 5.101643 -18.82692 11.3448 88.00638 36.55975 -22.3696 -0 0 14.39678 -8.148902 10.68222 6.043515 3.931702 -19.22756 -1.45467 -95.28637 36.305 25.35408 0 0 -25.09943 -5.353924 12.47907 23.49575
1.364828 101.6982 9.269281 0.3073277 -0.7363371 1.426484 3.754269 -27.27854 4.778006 -0 27.31718 -0 -6.705302 -9.575107 -3.809716 -5.927447 15.86795 -19.42999 -0 5.184164 -0 4.764209 -20.97577 21.20966 -1.507019 -1.218367 4.283143 2.934809 7.583414 -8.348338 0.9915319 21.26908 7.463887 2.698051 -26.31553 9.436207 5.121139 -18.54859 11.3336 88.22858 36.54282 -22.65877 -0 0 13.88934 -8.319843 10.72854 6.006726 4.07654 -19.45112 -1.546753 -94.5452 35.88881 24.30125 0 0 -25.38217 -4.762786 12.63119 22.62015
1.434893 100.6969 12.36725 0.170981 -0.7916594 1.73891 3.671058 -29.41497 3.547364 -0 23.3651 -0 -6.728593 -7.942609 -3.998434 -5.575459 17.58235 -17.95088 -0 5.356705 -0 3.677009 -21.49828 19.62317 -1.549189 -1.196831 4.113601 2.957113 7.626267 -8.435868 0.9841325 21.30196 7.511636 2.76911 -26.15706 9.417985 5.136555 -18.22444 11.31503 88.5154 36.51084 -23.03711 -0 0 13.29613 -8.482225 10.77688 5.946569 4.234515 -19.70512 -1.648232 -93.72533 35.46918 23.1119 0 0 -25.76554 -4.146028 12.7735 21.70979
1.465143 99.51621 16.1313 0.06266716 -1.041305 2.094155 3.462204 -31.04694 2.213413 -0 19.82383 -0 -6.600886 -5.948919 -4.245553 -5.279276 19.03492 -16.17335 -0 6.291353 -0 2.281597 -21.76966 17.83012 -1.588244 -1.175045 3.929149 2.98904 7.658997 -8.541288 0.9793906 21.33481 7.559237 2.831258 -26.01255 9.410173 5.14487 -17.88206 11.2901 88.85864 36.46532 -23.49595 -0 0 12.66046 -8.604052 10.81882 5.858224 4.391146 -19.97237 -1.749823 -92.9004 35.09853 21.88884 0 0 -26.2412 -3.568372 12.89484 20.86174
1.476114 98.24015 20.6507 -0.007710172 -1.516108 2.489904 3.194062 -31.97113 0.8916708 -0 16.92642 -0 -6.318108 -3.688614 -4.5683 -5.050568 20.08022 -14.14297 -0 8.424565 -0 0.6026412 -21.64946 15.90893 -1.633162 -1.140966 3.734983 3.016 7.685466 -8.643598 0.9806115 21.37544 7.605958 2.890106 -25.83188 9.403377 5.15199 -17.50318 11.2569 89.2034 36.39846 -23.95493 -0 0 11.98853 -8.766045 10.87716 5.780003 4.552 -20.23599 -1.855413 -92.02853 34.70879 20.5754 0 0 -26.73753 -2.992768 12.97888 20.01085
1.48977 97.00577 25.94324 -0.02929 -2.218958 2.906359 2.995038 -31.9234 -0.1916572 -0 14.9993 -0 -5.907191 -1.424344 -4.96556 -4.886607 20.48826 -12.02683 -0 12.2062 -0 -1.226631 -20.9807 14.06623 -1.683994 -1.092554 3.555385 3.026478 7.707888 -8.719491 0.9886782 21.42361 7.646554 2.944253 -25.60611 9.391292 5.160365 -17.12051 11.21918 89.48012 36.31427 -24.31602 -0 0 11.35687 -8.999145 10.95785 5.743282 4.704515 -20.46094 -1.957257 -91.18198 34.29004 19.28402 0 0 -27.15408 -2.447882 13.01304 19.19383
1.523485 95.99731 31.9349 0.003095874 -3.129777 3.30357 3.010391 -30.68509 -0.7912214 -0 14.31087 -0 -5.420164 0.5197318 -5.420414 -4.757684 20.0384 -10.03997 -0 18.03466 -0 -3.029912 -19.64063 12.54895 -1.740379 -1.029148 3.429403 3.002993 7.732871 -8.732838 1.00332 21.47767 7.6736 2.994101 -25.32568 9.36252 5.174487 -16.79051 11.18484 89.57964 36.22449 -24.42479 -0 0 10.88857 -9.34923 11.06741 5.796793 4.830563 -20.59584 -2.044029 -90.47359 33.82266 18.1983 0 0 -27.32622 -1.964155 12.98832 18.44858
1.5826 95.41662 38.44447 0.08099465 -4.185489 3.619628 3.343381 -28.11564 -0.7204221 -0 14.90879 -0 -4.950319 1.751061 -5.878191 -4.610132 18.52218 -8.422236 -0 26.02508 -0 -4.603209 -17.58658 11.61184 -1.798169 -0.9551326 3.409433 2.927673 7.767109 -8.642393 1.022709 21.53178 7.677291 3.037864 -24.99988 9.305732 5.198593 -16.59994 11.16564 89.37402 36.14894 -24.10138 -0 0 10.75345 -9.84398 11.20415 5.991742 4.902112 -20.57538 -2.097661 -90.07063 33.31881 17.59446 0 0 -27.05565 -1.602484 12.90097 17.85976
1.654754 95.42463 45.19507 0.1749566 -5.271496 3.773018 3.995049 -24.20583 0.0498016 -0 16.43656 -0 -4.631228 1.870654 -6.238538 -4.381085 15.77849 -7.363728 -0 35.75897 -0 -5.766754 -14.89975 11.43792 -1.853452 -0.874833 3.540167 2.786139 7.814646 -8.414097 1.04535 21.58042 7.649207 3.07324 -24.64033 9.212575 5.236106 -16.62406 11.17149 88.75861 36.09957 -23.1973 -0 0 11.09743 -10.50109 11.36339 6.369658 4.894014 -20.34319 -2.101601 -90.11013 32.80172 17.70626 0 0 -26.17849 -1.422438 12.74877 17.51143
1.71451 96.06324 51.86863 0.2382823 -6.227082 3.677187 4.837241 -19.14099 1.326692 -0 18.0852 -0 -4.596152 0.6075906 -6.373382 -4.021389 11.76057 -6.917941 -0 45.98073 -0 -6.410017 -11.83462 12.05655 -1.905573 -0.7877686 3.828803 2.575979 7.872045 -8.042523 1.072406 21.62316 7.586947 3.09723 -24.2488 9.083995 5.286472 -16.87363 11.20255 87.72238 36.06059 -21.6918 -0 0 11.94502 -11.32139 11.54084 6.937102 4.7994 -19.88609 -2.051275 -90.60359 32.29065 18.561 0 0 -24.67609 -1.452354 12.5258 17.44387
1.743773 97.19794 58.21983 0.2324451 -6.900243 3.276789 5.638617 -13.3613 2.699628 -0 18.87129 -0 -4.873977 -1.915307 -6.194036 -3.513107 6.671328 -6.909688 -0 54.59128 -0 -6.547295 -8.830279 13.26209 -1.95924 -0.6861762 4.225227 2.311901 7.928745 -7.564585 1.108507 21.66771 7.497446 3.107958 -23.80725 8.932391 5.342556 -17.26046 11.24485 86.39367 35.98445 -19.75495 -0 0 13.13336 -12.28942 11.73619 7.650717 4.642295 -19.26012 -1.963395 -91.37513 31.78271 19.8735 0 0 -22.74171 -1.653974 12.22349 17.60217
1.756231 98.54345 64.19326 0.1621613 -7.237881 2.590078 6.159743 -7.46303 3.693361 -0 18.25702 -0 -5.310754 -5.040224 -5.711028 -2.860703 1.007247 -6.964685 -0 59.38229 -0 -6.32673 -6.387184 14.65559 -2.020657 -0.5616717 4.645164 2.020983 7.974201 -7.045309 1.158401 21.72483 7.393802 3.106073 -23.29436 8.775934 5.392063 -17.64411 11.27782 84.99038 35.82221 -17.68194 -0 0 14.38856 -13.37009 11.94909 8.432605 4.466947 -18.56924 -1.869307 -92.14747 31.26722 21.19203 0 0 -20.69584 -1.935977 11.84369 17.85737
1.798655 99.7723 69.92507 0.07445819 -7.30783 1.711374 6.273464 -1.92062 4.024985 -0 16.49453 -0 -5.663831 -7.925035 -5.004271 -2.070122 -4.660536 -6.736289 -0 59.19335 -0 -5.933983 -4.831703 15.87211 -2.09094 -0.4146309 5.029512 1.726269 8.006104 -6.53578 1.222461 21.79867 7.285955 3.09392 -22.7118 8.626872 5.4244 -17.93783 11.29011 83.67847 35.55766 -15.69967 -0 0 15.52057 -14.51757 12.17264 9.218267 4.305822 -17.89642 -1.792642 -92.74336 30.7443 22.23043 0 0 -18.76975 -2.220639 11.40592 18.10314
1.926513 100.6167 75.61725 0.01651239 -7.211989 0.762566 6.010285 3.082752 3.727589 -0 14.23647 -0 -5.791086 -10.11341 -4.153602 -1.157051 -9.974044 -6.125925 -0 54.35337 -0 -5.469872 -4.187791 16.78461 -2.165275 -0.2536917 5.374899 1.435009 8.029512 -6.047078 1.297041 21.88468 7.175047 3.072932 -22.08446 8.486406 5.435808 -18.15344 11.28513 82.49048 35.20319 -13.85154 -0 0 16.52222 -15.6962 12.39473 9.988795 4.161162 -17.2593 -1.735619 -93.1772 30.22334 23.01309 0 0 -16.99044 -2.492729 10.93375 18.32403
2.181678 100.9127 81.41084 0.009318869 -7.018277 -0.1566459 5.495781 7.555656 3.051599 -0 12.08165 -0 -5.701855 -11.64765 -3.2259 -0.1802595 -14.80782 -5.282686 -0 46.20611 -0 -4.937748 -4.255821 17.48074 -2.237879 -0.08754815 5.707827 1.143274 8.049656 -5.565137 1.378482 21.97595 7.056894 3.04252 -21.43829 8.350387 5.427324 -18.34752 11.27191 81.38077 34.77422 -12.07105 -0 0 17.4831 -16.88989 12.6049 10.7562 4.017779 -16.63326 -1.687633 -93.5545 29.71573 23.71036 0 0 -15.27161 -2.780815 10.43931 18.56589
